<?xml version="1.0" encoding="iso-8859-1"?>
<!-- Generator: Adobe Illustrator 19.0.0, SVG Export Plug-In . SVG Version: 6.00 Build 0)  -->
<svg xmlns="http://www.w3.org/2000/svg" xmlns:xlink="http://www.w3.org/1999/xlink" version="1.1" id="Capa_1" x="0px" y="0px" viewBox="0 0 512 512" style="enable-background:new 0 0 512 512;" xml:space="preserve" width="512" height="512">
<g id="XMLID_1524_">
	<g id="XMLID_1525_">
		<g id="XMLID_1526_">
			<g id="XMLID_1527_">
				<rect id="XMLID_3194_" x="359.616" y="238.732" style="fill:#F26200;" width="31.538" height="44.65"/>
				<path id="XMLID_1531_" style="fill:#FEC007;" d="M372.007,168.272l-17.54,68.762c-0.646,2.532,1.267,4.994,3.88,4.994h34.077      c2.613,0,4.526-2.462,3.88-4.994l-17.54-68.762C377.871,164.772,372.9,164.772,372.007,168.272z"/>
			</g>
			<g id="XMLID_1532_">
				<rect id="XMLID_3187_" x="120.845" y="238.732" style="fill:#F26200;" width="31.538" height="44.65"/>
				<path id="XMLID_1536_" style="fill:#FEC007;" d="M133.236,168.272l-17.54,68.762c-0.646,2.532,1.267,4.994,3.88,4.994h34.077      c2.613,0,4.526-2.462,3.88-4.994l-17.54-68.762C139.1,164.772,134.129,164.772,133.236,168.272z"/>
			</g>
		</g>
		<path id="XMLID_1539_" style="fill:#FE9700;" d="M403,267.604V401.87H109V267.604c0-4.437,3.597-8.034,8.034-8.034h277.932    C399.403,259.57,403,263.167,403,267.604z"/>
		<path id="XMLID_1542_" style="fill:#F26200;" d="M377.05,394l2.19,7.87H132.76l1.96-7.04c-4.58-4.36-7.44-10.5-7.44-17.3    c0-11.4,8.03-20.96,18.73-23.33l0.49-1.77c-5.66-4.38-9.32-11.23-9.32-18.93c0-12.26,9.28-22.39,21.19-23.73l0.35-1.26    c-5.61-4.3-9.23-11.07-9.23-18.66v-0.74c0-12.16,9.28-22.2,21.13-23.41l1.7-6.13h167.36l1.74,6.27    c11.32,1.7,20.03,11.49,20.03,23.27v0.74c0,7.2-3.25,13.65-8.36,17.97l0.58,2.09c11.38,1.84,20.09,11.71,20.09,23.59    c0,7.3-3.29,13.84-8.46,18.23l0.77,2.75c10.12,2.78,17.59,12.06,17.59,23.05C383.66,383.91,381.14,389.71,377.05,394z"/>
		<path id="XMLID_1545_" style="fill:#F9DE69;" d="M504.5,398.374v49.532c0,4.426-3.588,8.014-8.014,8.014H15.514    c-4.426,0-8.014-3.588-8.014-8.014v-49.532c0-4.426,3.588-8.014,8.014-8.014h480.972C500.912,390.36,504.5,393.948,504.5,398.374z    "/>
		<path id="XMLID_1548_" style="fill:#FEC007;" d="M429.87,455.92H82.13c2.47-10.97,12.3-19.19,24.01-19.19h9.05v-0.46    c0-9.85,5.82-18.37,14.2-22.3l6.57-23.61h240.08l6.57,23.61c8.38,3.93,14.2,12.45,14.2,22.3v0.46h9.05    C417.57,436.73,427.4,444.95,429.87,455.92z"/>
		<g id="XMLID_1549_">
			<rect id="XMLID_3167_" x="221.229" y="168.652" style="fill:#F26200;" width="69.542" height="38.485"/>
			<path id="XMLID_1553_" style="fill:#FE9700;" d="M373.75,430.66h-235.5l5.29-19.01l2.97-10.69l37.64-135.38l17.01-61.2     c1.14-4.1,4.88-6.94,9.14-6.94h91.4c4.26,0,8,2.84,9.14,6.94l17.01,61.2l37.58,135.16l3.03,10.91L373.75,430.66z"/>
			<g id="XMLID_1558_">
				<g id="XMLID_1555_">
					<g id="XMLID_1556_">
						<polygon id="XMLID_1557_" style="fill:#F26200;" points="373.75,430.66 138.25,430.66 143.54,411.65 368.46,411.65       "/>
					</g>
				</g>
			</g>
			<path id="XMLID_3153_" style="fill:#FEC007;" d="M337.922,300.377H173.017c-5.816,0-10.531-4.715-10.531-10.531v-0.733     c0-5.816,4.715-10.531,10.531-10.531h164.905c5.816,0,10.531,4.715,10.531,10.531v0.733     C348.453,295.662,343.738,300.377,337.922,300.377z"/>
			<path id="XMLID_3150_" style="fill:#FEC007;" d="M349.864,344.403h-188.79c-6.019,0-10.898-4.879-10.898-10.898v0     c0-6.019,4.879-10.897,10.898-10.897h188.79c6.019,0,10.898,4.879,10.898,10.897v0     C360.762,339.524,355.883,344.403,349.864,344.403z"/>
			<path id="XMLID_3147_" style="fill:#FEC007;" d="M359.758,388.428H151.18c-6.019,0-10.898-4.879-10.898-10.898l0,0     c0-6.019,4.879-10.898,10.898-10.898h208.578c6.019,0,10.898,4.879,10.898,10.898l0,0     C370.655,383.549,365.776,388.428,359.758,388.428z"/>
			<path id="XMLID_1567_" style="fill:#FEC007;" d="M248.551,13.288l-38.675,151.621c-1.424,5.583,2.794,11.011,8.555,11.011h75.139     c5.761,0,9.979-5.429,8.555-11.011L263.449,13.288C261.481,5.571,250.519,5.571,248.551,13.288z"/>
			<path id="XMLID_1570_" style="fill:#B77E53;" d="M383.81,436.27v18.11H128.19v-18.11c0-6.42,5.21-11.62,11.62-11.62h232.38     C378.6,424.65,383.81,429.85,383.81,436.27z"/>
			<rect id="XMLID_1573_" x="128.19" y="436.73" style="fill:#8E4F20;" width="255.62" height="17.65"/>
			<path id="XMLID_1576_" style="fill:#FEC007;" d="M417.48,461.35v18.11H94.52v-18.11c0-6.42,5.2-11.62,11.62-11.62h299.72     C412.28,449.73,417.48,454.93,417.48,461.35z"/>
			<rect id="XMLID_1579_" x="94.52" y="461.77" style="fill:#FE9700;" width="322.96" height="17.69"/>
			<path id="XMLID_3129_" style="fill:#B77E53;" d="M453.077,504.5H58.923v-18.107c0-6.418,5.203-11.62,11.62-11.62h370.914     c6.418,0,11.62,5.203,11.62,11.62V504.5z"/>
			<path id="XMLID_3126_" style="fill:#723700;" d="M274.74,424.649h-37.48v-83.301c0-10.35,8.39-18.74,18.74-18.74h0     c10.35,0,18.74,8.39,18.74,18.74V424.649z"/>
		</g>
		<g id="XMLID_1580_">
			<g id="XMLID_1583_">
				<path id="XMLID_3124_" style="fill:#FE9700;" d="M461.841,437.268H443.68c-2.771,0-5.017-2.246-5.017-5.017V414.09      c0-2.771,2.246-5.017,5.017-5.017h18.161c2.771,0,5.017,2.246,5.017,5.017v18.161      C466.858,435.022,464.612,437.268,461.841,437.268z"/>
			</g>
			<g id="XMLID_1584_">
				<path id="XMLID_3122_" style="fill:#FE9700;" d="M68.32,437.268H50.159c-2.771,0-5.017-2.246-5.017-5.017V414.09      c0-2.771,2.246-5.017,5.017-5.017H68.32c2.771,0,5.017,2.246,5.017,5.017v18.161C73.337,435.022,71.091,437.268,68.32,437.268z"/>
			</g>
		</g>
	</g>
	<g id="XMLID_1585_">
		<path id="XMLID_1586_" d="M496.486,382.863H410.5v-37.774c0-4.142-3.357-7.5-7.5-7.5s-7.5,3.358-7.5,7.5v37.774h-18.139    c0.513-1.689,0.794-3.478,0.794-5.332c0-9.495-7.231-17.331-16.476-18.296l-2.714-9.762c5.544-3.173,9.297-9.135,9.297-15.968    c0-10.145-8.253-18.397-18.397-18.397h-0.454l-2.657-9.558c5.483-3.096,9.2-8.97,9.2-15.703v-0.733    c0-9.942-8.088-18.031-18.03-18.031h-0.754l-1.116-4.012h58.913c0.295,0,0.534,0.239,0.534,0.534v43.308    c0,4.142,3.357,7.5,7.5,7.5s7.5-3.358,7.5-7.5v-43.308c0-7.293-5.058-13.411-11.846-15.073V247.7    c1.075-0.694,2.041-1.572,2.854-2.618c2.195-2.825,2.947-6.434,2.063-9.902l-17.54-68.763c-1.262-4.947-5.54-8.271-10.646-8.271    c-5.106,0-9.385,3.324-10.646,8.271l-17.54,68.763c-0.884,3.467-0.132,7.076,2.063,9.901c0.812,1.045,1.779,1.923,2.854,2.618    v4.37h-20.234l-13.818-49.698c-2.036-7.323-8.767-12.437-16.366-12.437h-3.427v-7.224c3.209-0.959,6.072-2.872,8.193-5.602    c3.116-4.01,4.184-9.133,2.929-14.055l-10.158-39.819c-1.023-4.015-5.116-6.436-9.121-5.413c-4.014,1.024-6.438,5.107-5.414,9.121    l10.158,39.819c0.133,0.521-0.056,0.91-0.238,1.145c-0.182,0.234-0.512,0.514-1.05,0.514h-75.139c-0.538,0-0.868-0.279-1.05-0.514    c-0.183-0.234-0.371-0.624-0.238-1.145l38.676-151.62c0.016-0.062,0.03-0.104,0.033-0.124c0.096-0.029,0.255-0.031,0.271-0.046    c0,0,0.028,0.048,0.06,0.17l19.8,77.624c1.024,4.014,5.111,6.438,9.121,5.414c4.014-1.023,6.438-5.107,5.414-9.121l-19.8-77.624    C268.972,4.595,263.058,0,256,0s-12.972,4.595-14.717,11.434l-38.676,151.621c-1.255,4.921-0.188,10.044,2.929,14.055    c2.121,2.73,4.985,4.643,8.193,5.602v7.224h-3.427c-7.6,0-14.33,5.114-16.366,12.437l-13.819,49.698h-20.234v-4.37    c1.075-0.694,2.041-1.572,2.854-2.618c2.195-2.825,2.947-6.434,2.063-9.901l-17.54-68.763c-1.262-4.947-5.54-8.271-10.646-8.271    c-5.105,0-9.384,3.324-10.646,8.271l-17.54,68.763c-0.884,3.467-0.132,7.076,2.063,9.901c0.812,1.045,1.779,1.923,2.854,2.618    v4.831c-6.788,1.662-11.846,7.78-11.846,15.073v115.259H15.514C6.959,382.863,0,389.822,0,398.377v49.534    c0,8.554,6.959,15.514,15.514,15.514h71.503v3.848H70.543c-10.543,0-19.12,8.577-19.12,19.12V504.5c0,4.142,3.357,7.5,7.5,7.5    h32.988c4.143,0,7.5-3.358,7.5-7.5s-3.357-7.5-7.5-7.5H66.423v-10.607c0-2.272,1.849-4.12,4.12-4.12h370.914    c2.271,0,4.12,1.848,4.12,4.12V497H126.089c-4.143,0-7.5,3.358-7.5,7.5s3.357,7.5,7.5,7.5h326.988c4.143,0,7.5-3.358,7.5-7.5    v-18.107c0-10.543-8.577-19.12-19.12-19.12h-16.474v-3.848h71.503c8.555,0,15.514-6.959,15.514-15.514v-49.534    C512,389.822,505.041,382.863,496.486,382.863z M375.385,185.371l12.539,49.157h-25.077L375.385,185.371z M367.116,249.528h16.538    v2.542h-16.538V249.528z M135.694,442.229v-5.96c0-2.272,1.849-4.12,4.12-4.12h232.371c2.271,0,4.12,1.848,4.12,4.12v5.96H135.694    z M232.294,330.107c-1.011,2.124-1.74,4.405-2.15,6.795h-69.07c-1.873,0-3.397-1.524-3.397-3.397s1.524-3.397,3.397-3.397H232.294    z M344.072,351.902l2.011,7.231H282.24v-7.231H344.072z M356.313,395.928l5.901,21.221H282.24v-21.221H356.313z M267.24,341.347    v75.802h-22.48v-75.802c0-6.198,5.042-11.24,11.24-11.24S267.24,335.149,267.24,341.347z M149.786,417.149l5.9-21.221h74.073    v21.221H149.786z M167.928,351.902h61.832v7.231h-63.842L167.928,351.902z M151.181,374.133h78.579v6.795h-78.579    c-1.873,0-3.397-1.524-3.397-3.397S149.308,374.133,151.181,374.133z M359.758,380.928H282.24v-6.795h77.518    c1.873,0,3.397,1.524,3.397,3.397S361.631,380.928,359.758,380.928z M353.262,333.505c0,1.874-1.524,3.397-3.397,3.397h-68.008    c-0.41-2.39-1.139-4.671-2.15-6.795h70.158C351.737,330.107,353.262,331.631,353.262,333.505z M178.159,315.107l2.01-7.23h151.662    l2.01,7.23H178.159z M340.952,289.113v0.733c0,1.671-1.359,3.031-3.03,3.031H173.017c-1.672,0-3.031-1.359-3.031-3.031v-0.733    c0-1.671,1.359-3.031,3.031-3.031h164.905C339.593,286.082,340.952,287.441,340.952,289.113z M228.729,183.42h54.541v6.516    h-54.541V183.42z M208.388,206.391c0.238-0.856,1.026-1.455,1.915-1.455h91.395c0.889,0,1.677,0.599,1.915,1.455l17.987,64.691    H190.4L208.388,206.391z M128.346,252.07v-2.542h16.538v2.542H128.346z M136.615,185.371l12.538,49.157h-25.077L136.615,185.371z     M116.5,267.604c0-0.294,0.239-0.534,0.534-0.534h58.913l-1.116,4.012h-1.814c-9.942,0-18.031,8.088-18.031,18.031v0.733    c0,7.106,4.142,13.246,10.129,16.182l-2.524,9.079h-1.516c-10.145,0-18.397,8.253-18.397,18.397    c0,7.206,4.174,13.44,10.223,16.457l-2.562,9.214c-9.752,0.445-17.554,8.495-17.554,18.355c0,1.854,0.282,3.643,0.794,5.332H116.5    V267.604z M15,447.911v-49.534c0-0.284,0.23-0.514,0.514-0.514H139.58l-5.62,20.211c-7.687,2.479-13.266,9.694-13.266,18.195v5.96    h-14.558c-5.557,0-10.552,2.398-14.049,6.195H15.514C15.23,448.424,15,448.194,15,447.911z M102.017,467.272v-5.923    c0-2.272,1.849-4.12,4.12-4.12h299.727c2.271,0,4.12,1.848,4.12,4.12v5.923H102.017z M497,447.911c0,0.283-0.23,0.514-0.514,0.514    h-76.574c-3.497-3.798-8.492-6.195-14.049-6.195h-14.558v-5.96c0-8.501-5.58-15.716-13.266-18.195l-5.62-20.211h124.067    c0.283,0,0.514,0.23,0.514,0.514V447.911z"/>
		<path id="XMLID_1610_" d="M461.841,401.573H443.68c-6.901,0-12.517,5.615-12.517,12.517v18.161    c0,6.902,5.615,12.517,12.517,12.517h18.161c6.902,0,12.518-5.615,12.518-12.517V414.09    C474.358,407.188,468.743,401.573,461.841,401.573z M459.358,429.768h-13.195v-13.195h13.195V429.768z"/>
		<path id="XMLID_1613_" d="M68.32,401.573H50.159c-6.902,0-12.518,5.615-12.518,12.517v18.161c0,6.902,5.615,12.517,12.518,12.517    H68.32c6.901,0,12.517-5.615,12.517-12.517V414.09C80.837,407.188,75.222,401.573,68.32,401.573z M65.837,429.768H52.642v-13.195    h13.195V429.768z"/>
	</g>
</g>















</svg>
