<svg height="496pt" viewBox="0 0 496 496" width="496pt" xmlns="http://www.w3.org/2000/svg"><path d="m226.886719 280.871094c6.984375 4.664062 15.128906 7.128906 23.539062 7.128906h37.574219v-18.695312c-19.496094-11.273438-33.792969-30.527344-38.414062-53.304688h-1.585938c-17.671875 0-32-14.328125-32-32 0-17.664062 14.3125-31.984375 31.976562-32v-32h8c4.777344 14.335938 18.191407 24 33.296876 24h6.703124v-24l1.375 1.375c14.488282 14.488281 34.136719 22.625 54.625 22.625v-24l1.375 1.375c14.488282 14.488281 34.136719 22.625 54.625 22.625v8h.023438c17.671875 0 32 14.328125 32 32s-14.328125 32-32 32h-.824219c-3.40625 21.671875-18.304687 41.753906-39.175781 53.449219v18.550781h37.574219c8.410156 0 16.546875-2.464844 23.53125-7.128906 11.832031-7.878906 18.894531-21.070313 18.894531-35.296875v-125.574219c0-66.167969-53.832031-120-120-120s-120 53.832031-120 120v125.574219c0 14.226562 7.0625 27.417969 18.886719 35.296875zm0 0" fill="#f0bc5e"/><path d="m296 168c0 4.417969-3.582031 8-8 8s-8-3.582031-8-8 3.582031-8 8-8 8 3.582031 8 8zm0 0"/><path d="m376 168c0 4.417969-3.582031 8-8 8s-8-3.582031-8-8 3.582031-8 8-8 8 3.582031 8 8zm0 0"/><path d="m360 216h-16c0 8.824219-7.175781 16-16 16s-16-7.175781-16-16h-16c0 17.648438 14.351562 32 32 32s32-14.351562 32-32zm0 0"/><path d="m457.710938 317.480469-81.710938-27.25v-16.300781c18.753906-11.792969 32.816406-29.96875 37.894531-50.53125 19.25-2.878907 34.105469-19.367188 34.105469-39.398438 0-19.320312-13.777344-35.480469-32.023438-39.191406v-8.808594h-8c-18.496093 0-35.886718-7.199219-48.96875-20.28125l-15.03125-15.03125v34.855469c-15.472656-1.765625-29.800781-8.65625-40.96875-19.832031l-15.03125-15.03125v35.28125c-11.144531-.527344-20.847656-7.832032-24.417968-18.496094l-1.816406-5.464844h-21.765626v32.808594c-18.222656 3.726562-31.976562 19.886718-31.976562 39.191406 0 20.433594 15.464844 37.144531 35.265625 39.519531 5.796875 20.847657 19.039063 38.59375 36.734375 50.152344v16.558594l-81.601562 27.203125-.824219.277344 5.777343 14.929687 39.457032-13.152344 34.550781 69.113281 26.640625-22.195312v81.59375h-116.921875v16h308.921875v-93.40625c0-24.136719-15.390625-45.488281-38.289062-53.113281zm-25.710938-133.480469c0 10.414062-6.710938 19.214844-16 22.527344l-.015625-45.054688c9.304687 3.304688 16.015625 12.101563 16.015625 22.527344zm-34.136719 130.382812-24.503906 49.007813-33.503906-27.925781 30.3125-30.3125zm-173.863281-130.382812c0-10.40625 6.695312-19.199219 15.976562-22.519531v38.519531c0 2.230469.167969 4.433594.335938 6.625-9.449219-3.226562-16.3125-12.097656-16.3125-22.625zm31.976562 16v-63.71875c8.015626 9.757812 20.121094 15.71875 33.296876 15.71875h14.703124v-14.769531c14.039063 9.601562 30.625 14.769531 48 14.769531h8v-14.769531c11.863282 8.121093 25.550782 13.066406 40 14.402343l.023438 55.03125c-.023438 34.808594-33.679688 65.335938-72.023438 65.335938-39.703124 0-72-32.296875-72-72zm72 88c11.167969 0 21.984376-2.214844 32.023438-6.089844v10.777344l-32 32-32-32v-10.792969c9.929688 3.890625 20.6875 6.105469 31.976562 6.105469zm-69.839843 26.382812 27.703125-9.230468 30.3125 30.3125-33.503906 27.925781zm61.863281 133.617188v-94.921875l8-6.664063 8 6.664063v94.921875zm160 0h-48v-72h-16v72h-64v-81.59375l26.640625 22.203125 34.550781-69.113281 39.457032 13.152344c16.359374 5.457031 27.351562 20.703124 27.351562 37.945312zm0 0"/><path d="m368 400h32v16h-32zm0 0"/><path d="m80 40h80v64h-80zm0 0" fill="#f0bc5e"/><path d="m224 414.207031v-60.421875l-23.144531-5.914062c-.160157-.390625-.320313-.78125-.488281-1.167969l12.183593-20.535156-42.726562-42.726563-20.535157 12.183594c-.394531-.167969-.785156-.328125-1.167968-.488281l-5.914063-23.136719h-60.421875l-5.914062 23.144531c-.390625.160157-.78125.320313-1.167969.488281l-20.535156-12.191406-42.726563 42.726563 12.183594 20.535156c-.167969.394531-.328125.785156-.488281 1.167969l-23.136719 5.921875v60.421875l23.144531 5.914062c.160157.390625.320313.78125.488281 1.167969l-12.191406 20.535156 42.726563 42.726563 20.535156-12.183594c.394531.167969.785156.328125 1.167969.488281l5.921875 23.136719h60.421875l5.914062-23.144531c.390625-.160157.78125-.320313 1.167969-.488281l20.535156 12.183593 42.726563-42.726562-12.183594-20.535157c.167969-.394531.328125-.785156.488281-1.167968zm-112-6.207031c-13.257812 0-24-10.742188-24-24s10.742188-24 24-24 24 10.742188 24 24-10.742188 24-24 24zm0 0" fill="#f0bc5e"/><path d="m112 448c-35.289062 0-64-28.710938-64-64s28.710938-64 64-64 64 28.710938 64 64-28.710938 64-64 64zm0-112c-26.472656 0-48 21.527344-48 48s21.527344 48 48 48 48-21.527344 48-48-21.527344-48-48-48zm0 0"/><path d="m112 416c-17.648438 0-32-14.351562-32-32s14.351562-32 32-32 32 14.351562 32 32-14.351562 32-32 32zm0-48c-8.824219 0-16 7.175781-16 16s7.175781 16 16 16 16-7.175781 16-16-7.175781-16-16-16zm0 0"/><path d="m52.6875 0-52.6875 52.6875v203.3125h192v-256zm-4.6875 27.3125v20.6875h-20.6875zm128 212.6875h-160v-176h48v-48h112zm0 0"/><path d="m80 32h80v16h-80zm0 0"/><path d="m80 64h80v16h-80zm0 0"/><path d="m32 96h128v16h-128zm0 0"/><path d="m160 224h-128v-96h128zm0 0" fill="#f0bc5e"/></svg>